<svg width="20" height="21" viewBox="0 0 20 21" fill="none" xmlns="http://www.w3.org/2000/svg">
<path d="M10 0.5C8.71669 0.5 7.48595 0.979498 6.57852 1.83301C5.67108 2.68652 5.16129 3.84413 5.16129 5.05118C5.16129 6.25823 5.67108 7.41584 6.57852 8.26935C7.48595 9.12286 8.71669 9.60236 10 9.60236C11.2833 9.60236 12.514 9.12286 13.4215 8.26935C14.3289 7.41584 14.8387 6.25823 14.8387 5.05118C14.8387 3.84413 14.3289 2.68652 13.4215 1.83301C12.514 0.979498 11.2833 0.5 10 0.5ZM4.83871 12.0297C3.5554 12.0297 2.32466 12.5091 1.41723 13.3627C0.509791 14.2162 0 15.3738 0 16.5808V18.0226C0 18.9377 0.704516 19.7169 1.66452 19.8637C7.18452 20.7121 12.8155 20.7121 18.3355 19.8637C18.7998 19.7919 19.2219 19.5674 19.5267 19.2303C19.8315 18.8931 19.9992 18.4652 20 18.0226V16.5808C20 15.3738 19.4902 14.2162 18.5828 13.3627C17.6753 12.5091 16.4446 12.0297 15.1613 12.0297H14.7226C14.4817 12.0305 14.2477 12.0653 14.0206 12.134L12.9032 12.4775C11.0167 13.0568 8.98326 13.0568 7.09677 12.4775L5.97935 12.134C5.75287 12.0657 5.51656 12.0305 5.27871 12.0297H4.83871Z" fill="#ED2929"/>
</svg>
