<svg width="20" height="20" viewBox="0 0 20 20" fill="none" xmlns="http://www.w3.org/2000/svg">
<path d="M10 0C8.71669 0 7.48595 0.479498 6.57852 1.33301C5.67108 2.18652 5.16129 3.34413 5.16129 4.55118C5.16129 5.75823 5.67108 6.91584 6.57852 7.76935C7.48595 8.62286 8.71669 9.10236 10 9.10236C11.2833 9.10236 12.514 8.62286 13.4215 7.76935C14.3289 6.91584 14.8387 5.75823 14.8387 4.55118C14.8387 3.34413 14.3289 2.18652 13.4215 1.33301C12.514 0.479498 11.2833 0 10 0ZM4.83871 11.5297C3.5554 11.5297 2.32466 12.0091 1.41723 12.8627C0.509791 13.7162 0 14.8738 0 16.0808V17.5226C0 18.4377 0.704516 19.2169 1.66452 19.3637C7.18452 20.2121 12.8155 20.2121 18.3355 19.3637C18.7998 19.2919 19.2219 19.0674 19.5267 18.7303C19.8315 18.3931 19.9992 17.9652 20 17.5226V16.0808C20 14.8738 19.4902 13.7162 18.5828 12.8627C17.6753 12.0091 16.4446 11.5297 15.1613 11.5297H14.7226C14.4817 11.5305 14.2477 11.5653 14.0206 11.634L12.9032 11.9775C11.0167 12.5568 8.98327 12.5568 7.09677 11.9775L5.97935 11.634C5.75287 11.5657 5.51656 11.5305 5.27871 11.5297H4.83871Z" fill="white"/>
</svg>
