<svg width="122" height="68" viewBox="0 0 122 68" fill="none" xmlns="http://www.w3.org/2000/svg">
<rect x="1" y="9.53674e-07" width="43" height="6" fill="#ED2929"/>
<rect x="6.54614" y="0.0114069" width="38.5009" height="6" transform="rotate(90.1211 6.54614 0.0114069)" fill="#ED2929"/>
<rect x="121.043" y="67.4117" width="43" height="6" transform="rotate(179.782 121.043 67.4117)" fill="#ED2929"/>
<rect x="115.497" y="67.4214" width="38.5009" height="6" transform="rotate(-90.0972 115.497 67.4214)" fill="#ED2929"/>
<path d="M33.1587 35.05C34.142 35.2333 34.9504 35.725 35.5837 36.525C36.217 37.325 36.5337 38.2417 36.5337 39.275C36.5337 40.2083 36.3004 41.0333 35.8337 41.75C35.3837 42.45 34.7254 43 33.8587 43.4C32.992 43.8 31.967 44 30.7837 44H23.2587V26.55H30.4587C31.642 26.55 32.6587 26.7417 33.5087 27.125C34.3754 27.5083 35.0254 28.0417 35.4587 28.725C35.9087 29.4083 36.1337 30.1833 36.1337 31.05C36.1337 32.0667 35.8587 32.9167 35.3087 33.6C34.7754 34.2833 34.0587 34.7667 33.1587 35.05ZM26.7587 33.75H29.9587C30.792 33.75 31.4337 33.5667 31.8837 33.2C32.3337 32.8167 32.5587 32.275 32.5587 31.575C32.5587 30.875 32.3337 30.3333 31.8837 29.95C31.4337 29.5667 30.792 29.375 29.9587 29.375H26.7587V33.75ZM30.2837 41.15C31.1337 41.15 31.792 40.95 32.2587 40.55C32.742 40.15 32.9837 39.5833 32.9837 38.85C32.9837 38.1 32.7337 37.5167 32.2337 37.1C31.7337 36.6667 31.0587 36.45 30.2087 36.45H26.7587V41.15H30.2837ZM40.8731 44.175C40.2398 44.175 39.7148 43.9833 39.2981 43.6C38.8981 43.2 38.6981 42.7083 38.6981 42.125C38.6981 41.5417 38.8981 41.0583 39.2981 40.675C39.7148 40.275 40.2398 40.075 40.8731 40.075C41.4898 40.075 41.9981 40.275 42.3981 40.675C42.7981 41.0583 42.9981 41.5417 42.9981 42.125C42.9981 42.7083 42.7981 43.2 42.3981 43.6C41.9981 43.9833 41.4898 44.175 40.8731 44.175ZM51.8423 44.175C50.6256 44.175 49.5256 43.9667 48.5423 43.55C47.5756 43.1333 46.809 42.5333 46.2423 41.75C45.6756 40.9667 45.384 40.0417 45.3673 38.975H49.1173C49.1673 39.6917 49.4173 40.2583 49.8673 40.675C50.334 41.0917 50.9673 41.3 51.7673 41.3C52.584 41.3 53.2256 41.1083 53.6923 40.725C54.159 40.325 54.3923 39.8083 54.3923 39.175C54.3923 38.6583 54.234 38.2333 53.9173 37.9C53.6006 37.5667 53.2006 37.3083 52.7173 37.125C52.2506 36.925 51.6006 36.7083 50.7673 36.475C49.634 36.1417 48.709 35.8167 47.9923 35.5C47.2923 35.1667 46.684 34.675 46.1673 34.025C45.6673 33.3583 45.4173 32.475 45.4173 31.375C45.4173 30.3417 45.6756 29.4417 46.1923 28.675C46.709 27.9083 47.434 27.325 48.3673 26.925C49.3006 26.5083 50.3673 26.3 51.5673 26.3C53.3673 26.3 54.8256 26.7417 55.9423 27.625C57.0756 28.4917 57.7006 29.7083 57.8173 31.275H53.9673C53.934 30.675 53.6756 30.1833 53.1923 29.8C52.7256 29.4 52.1006 29.2 51.3173 29.2C50.634 29.2 50.084 29.375 49.6673 29.725C49.2673 30.075 49.0673 30.5833 49.0673 31.25C49.0673 31.7167 49.2173 32.1083 49.5173 32.425C49.834 32.725 50.2173 32.975 50.6673 33.175C51.134 33.3583 51.784 33.575 52.6173 33.825C53.7506 34.1583 54.6756 34.4917 55.3923 34.825C56.109 35.1583 56.7256 35.6583 57.2423 36.325C57.759 36.9917 58.0173 37.8667 58.0173 38.95C58.0173 39.8833 57.7756 40.75 57.2923 41.55C56.809 42.35 56.1006 42.9917 55.1673 43.475C54.234 43.9417 53.1256 44.175 51.8423 44.175ZM60.1517 37.025C60.1517 35.625 60.4267 34.3833 60.9767 33.3C61.5433 32.2167 62.3017 31.3833 63.2517 30.8C64.2183 30.2167 65.2933 29.925 66.4767 29.925C67.51 29.925 68.41 30.1333 69.1767 30.55C69.96 30.9667 70.585 31.4917 71.0517 32.125V30.15H74.5767V44H71.0517V41.975C70.6017 42.625 69.9767 43.1667 69.1767 43.6C68.3933 44.0167 67.485 44.225 66.4517 44.225C65.285 44.225 64.2183 43.925 63.2517 43.325C62.3017 42.725 61.5433 41.8833 60.9767 40.8C60.4267 39.7 60.1517 38.4417 60.1517 37.025ZM71.0517 37.075C71.0517 36.225 70.885 35.5 70.5517 34.9C70.2183 34.2833 69.7683 33.8167 69.2017 33.5C68.635 33.1667 68.0267 33 67.3767 33C66.7267 33 66.1267 33.1583 65.5767 33.475C65.0267 33.7917 64.5767 34.2583 64.2267 34.875C63.8933 35.475 63.7267 36.1917 63.7267 37.025C63.7267 37.8583 63.8933 38.5917 64.2267 39.225C64.5767 39.8417 65.0267 40.3167 65.5767 40.65C66.1433 40.9833 66.7433 41.15 67.3767 41.15C68.0267 41.15 68.635 40.9917 69.2017 40.675C69.7683 40.3417 70.2183 39.875 70.5517 39.275C70.885 38.6583 71.0517 37.925 71.0517 37.075ZM95.195 29.95C96.895 29.95 98.2617 30.475 99.295 31.525C100.345 32.5583 100.87 34.0083 100.87 35.875V44H97.37V36.35C97.37 35.2667 97.095 34.4417 96.545 33.875C95.995 33.2917 95.245 33 94.295 33C93.345 33 92.5867 33.2917 92.02 33.875C91.47 34.4417 91.195 35.2667 91.195 36.35V44H87.695V36.35C87.695 35.2667 87.42 34.4417 86.87 33.875C86.32 33.2917 85.57 33 84.62 33C83.6534 33 82.8867 33.2917 82.32 33.875C81.77 34.4417 81.495 35.2667 81.495 36.35V44H77.995V30.15H81.495V31.825C81.945 31.2417 82.52 30.7833 83.22 30.45C83.9367 30.1167 84.72 29.95 85.57 29.95C86.6534 29.95 87.62 30.1833 88.47 30.65C89.32 31.1 89.9784 31.75 90.445 32.6C90.895 31.8 91.545 31.1583 92.395 30.675C93.2617 30.1917 94.195 29.95 95.195 29.95Z" fill="white"/>
</svg>
