<svg width="33" height="33" viewBox="0 0 33 33" fill="none" xmlns="http://www.w3.org/2000/svg">
<path d="M32.4844 24.7459H29.3906C29.1059 24.7459 28.875 24.9306 28.875 25.1584V26.3959C28.875 26.6237 29.1059 26.8084 29.3906 26.8084H32.4844C32.7691 26.8084 33 26.6237 33 26.3959V25.1584C33 24.9306 32.7691 24.7459 32.4844 24.7459Z" fill="#ED2929"/>
<path d="M32.4844 15.4647H29.3906C29.1059 15.4647 28.875 15.6493 28.875 15.8772V17.1147C28.875 17.3425 29.1059 17.5272 29.3906 17.5272H32.4844C32.7691 17.5272 33 17.3425 33 17.1147V15.8772C33 15.6493 32.7691 15.4647 32.4844 15.4647Z" fill="#ED2929"/>
<path d="M32.4844 10.824H29.3906C29.1059 10.824 28.875 11.0087 28.875 11.2365V12.474C28.875 12.7019 29.1059 12.8865 29.3906 12.8865H32.4844C32.7691 12.8865 33 12.7019 33 12.474V11.2365C33 11.0087 32.7691 10.824 32.4844 10.824Z" fill="#ED2929"/>
<path d="M32.4844 6.18341H29.3906C29.1059 6.18341 28.875 6.36809 28.875 6.59591V7.83341C28.875 8.06123 29.1059 8.24591 29.3906 8.24591H32.4844C32.7691 8.24591 33 8.06123 33 7.83341V6.59591C33 6.36809 32.7691 6.18341 32.4844 6.18341Z" fill="#ED2929"/>
<path d="M32.4844 20.1053H29.3906C29.1059 20.1053 28.875 20.29 28.875 20.5178V21.7553C28.875 21.9831 29.1059 22.1678 29.3906 22.1678H32.4844C32.7691 22.1678 33 21.9831 33 21.7553V20.5178C33 20.29 32.7691 20.1053 32.4844 20.1053Z" fill="#ED2929"/>
<path d="M8.25537 32.4844V29.3906C8.25537 29.1059 8.07069 28.875 7.84287 28.875H6.60537C6.37755 28.875 6.19287 29.1059 6.19287 29.3906V32.4844C6.19287 32.7691 6.37755 33 6.60537 33H7.84287C8.07069 33 8.25537 32.7691 8.25537 32.4844Z" fill="#ED2929"/>
<path d="M17.5366 32.4844V29.3906C17.5366 29.1059 17.3519 28.875 17.1241 28.875H15.8866C15.6588 28.875 15.4741 29.1059 15.4741 29.3906V32.4844C15.4741 32.7691 15.6588 33 15.8866 33H17.1241C17.3519 33 17.5366 32.7691 17.5366 32.4844Z" fill="#ED2929"/>
<path d="M22.1772 32.4844V29.3906C22.1772 29.1059 21.9926 28.875 21.7647 28.875H20.5272C20.2994 28.875 20.1147 29.1059 20.1147 29.3906V32.4844C20.1147 32.7691 20.2994 33 20.5272 33H21.7647C21.9926 33 22.1772 32.7691 22.1772 32.4844Z" fill="#ED2929"/>
<path d="M26.8179 32.4844V29.3906C26.8179 29.1059 26.6332 28.875 26.4054 28.875H25.1679C24.9401 28.875 24.7554 29.1059 24.7554 29.3906V32.4844C24.7554 32.7691 24.9401 33 25.1679 33H26.4054C26.6332 33 26.8179 32.7691 26.8179 32.4844Z" fill="#ED2929"/>
<path d="M12.896 32.4844V29.3906C12.896 29.1059 12.7113 28.875 12.4835 28.875H11.246C11.0182 28.875 10.8335 29.1059 10.8335 29.3906V32.4844C10.8335 32.7691 11.0182 33 11.246 33H12.4835C12.7113 33 12.896 32.7691 12.896 32.4844Z" fill="#ED2929"/>
<path d="M3.60938 24.7459H0.515625C0.230853 24.7459 0 24.9306 0 25.1584V26.3959C0 26.6237 0.230853 26.8084 0.515625 26.8084H3.60938C3.89415 26.8084 4.125 26.6237 4.125 26.3959V25.1584C4.125 24.9306 3.89415 24.7459 3.60938 24.7459Z" fill="#ED2929"/>
<path d="M3.60938 15.4647H0.515625C0.230853 15.4647 0 15.6493 0 15.8772V17.1147C0 17.3425 0.230853 17.5272 0.515625 17.5272H3.60938C3.89415 17.5272 4.125 17.3425 4.125 17.1147V15.8772C4.125 15.6493 3.89415 15.4647 3.60938 15.4647Z" fill="#ED2929"/>
<path d="M3.60938 10.824H0.515625C0.230853 10.824 0 11.0087 0 11.2365V12.474C0 12.7019 0.230853 12.8865 0.515625 12.8865H3.60938C3.89415 12.8865 4.125 12.7019 4.125 12.474V11.2365C4.125 11.0087 3.89415 10.824 3.60938 10.824Z" fill="#ED2929"/>
<path d="M3.60938 6.18341H0.515625C0.230853 6.18341 0 6.36809 0 6.59591V7.83341C0 8.06123 0.230853 8.24591 0.515625 8.24591H3.60938C3.89415 8.24591 4.125 8.06123 4.125 7.83341V6.59591C4.125 6.36809 3.89415 6.18341 3.60938 6.18341Z" fill="#ED2929"/>
<path d="M3.60938 20.1053H0.515625C0.230853 20.1053 0 20.29 0 20.5178V21.7553C0 21.9831 0.230853 22.1678 0.515625 22.1678H3.60938C3.89415 22.1678 4.125 21.9831 4.125 21.7553V20.5178C4.125 20.29 3.89415 20.1053 3.60938 20.1053Z" fill="#ED2929"/>
<path d="M8.25537 3.60962V0.515869C8.25537 0.231097 8.07069 0.000244141 7.84287 0.000244141H6.60537C6.37755 0.000244141 6.19287 0.231097 6.19287 0.515869V3.60962C6.19287 3.89439 6.37755 4.12524 6.60537 4.12524H7.84287C8.07069 4.12524 8.25537 3.89439 8.25537 3.60962Z" fill="#ED2929"/>
<path d="M17.5366 3.60962V0.515869C17.5366 0.231097 17.3519 0.000244141 17.1241 0.000244141H15.8866C15.6588 0.000244141 15.4741 0.231097 15.4741 0.515869V3.60962C15.4741 3.89439 15.6588 4.12524 15.8866 4.12524H17.1241C17.3519 4.12524 17.5366 3.89439 17.5366 3.60962Z" fill="#ED2929"/>
<path d="M22.1772 3.60962V0.515869C22.1772 0.231097 21.9926 0.000244141 21.7647 0.000244141H20.5272C20.2994 0.000244141 20.1147 0.231097 20.1147 0.515869V3.60962C20.1147 3.89439 20.2994 4.12524 20.5272 4.12524H21.7647C21.9926 4.12524 22.1772 3.89439 22.1772 3.60962Z" fill="#ED2929"/>
<path d="M26.8179 3.60962V0.515869C26.8179 0.231097 26.6332 0.000244141 26.4054 0.000244141H25.1679C24.9401 0.000244141 24.7554 0.231097 24.7554 0.515869V3.60962C24.7554 3.89439 24.9401 4.12524 25.1679 4.12524H26.4054C26.6332 4.12524 26.8179 3.89439 26.8179 3.60962Z" fill="#ED2929"/>
<path d="M12.896 3.60962V0.515869C12.896 0.231097 12.7113 0.000244141 12.4835 0.000244141H11.246C11.0182 0.000244141 10.8335 0.231097 10.8335 0.515869V3.60962C10.8335 3.89439 11.0182 4.12524 11.246 4.12524H12.4835C12.7113 4.12524 12.896 3.89439 12.896 3.60962Z" fill="#ED2929"/>
<path d="M28.4109 3.39905H4.58906C4.048 3.39905 3.60938 3.74994 3.60938 4.1828V28.6028C3.60938 29.0357 4.048 29.3865 4.58906 29.3865H28.4109C28.952 29.3865 29.3906 29.0357 29.3906 28.6028V4.1828C29.3906 3.74994 28.952 3.39905 28.4109 3.39905Z" fill="#ED2929"/>
<path d="M21.9914 19.6103C20.9086 21.5284 18.8461 22.8071 16.5 22.8071C13.0195 22.8071 10.1836 19.9815 10.1836 16.4959C10.1836 13.0103 13.0195 10.1846 16.5 10.1846C18.8461 10.1846 20.9086 11.484 21.9914 13.4021L25.343 11.4634C23.5898 8.39025 20.2898 6.30713 16.5 6.30713C10.8797 6.30713 6.31641 10.8653 6.31641 16.4959C6.31641 22.1265 10.8797 26.6846 16.5 26.6846C20.2641 26.6846 23.5641 24.6221 25.3172 21.5903L21.9914 19.6103Z" fill="#060101"/>
<path d="M5.92969 6.71966C6.35685 6.71966 6.70312 6.36876 6.70312 5.93591C6.70312 5.50306 6.35685 5.15216 5.92969 5.15216C5.50253 5.15216 5.15625 5.50306 5.15625 5.93591C5.15625 6.36876 5.50253 6.71966 5.92969 6.71966Z" fill="#060101"/>
</svg>
