<svg width="33" height="33" viewBox="0 0 33 33" fill="none" xmlns="http://www.w3.org/2000/svg">
<path d="M7.21875 5.5C6.03356 5.5 4.89692 5.97081 4.05887 6.80887C3.22081 7.64692 2.75 8.78356 2.75 9.96875V23.0312C2.75 24.2164 3.22081 25.3531 4.05887 26.1911C4.89692 27.0292 6.03356 27.5 7.21875 27.5H25.7812C26.3681 27.5 26.9492 27.3844 27.4914 27.1598C28.0335 26.9353 28.5262 26.6061 28.9411 26.1911C29.3561 25.7762 29.6853 25.2835 29.9098 24.7414C30.1344 24.1992 30.25 23.6181 30.25 23.0312V9.96875C30.25 9.38191 30.1344 8.80081 29.9098 8.25863C29.6853 7.71646 29.3561 7.22383 28.9411 6.80887C28.5262 6.3939 28.0335 6.06474 27.4914 5.84016C26.9492 5.61559 26.3681 5.5 25.7812 5.5H7.21875ZM6.875 10.6562C6.875 10.3827 6.98365 10.1204 7.17705 9.92705C7.37044 9.73365 7.63275 9.625 7.90625 9.625H15.4688C15.7423 9.625 16.0046 9.73365 16.198 9.92705C16.3913 10.1204 16.5 10.3827 16.5 10.6562C16.5 10.9298 16.3913 11.1921 16.198 11.3855C16.0046 11.5789 15.7423 11.6875 15.4688 11.6875H7.90625C7.63275 11.6875 7.37044 11.5789 7.17705 11.3855C6.98365 11.1921 6.875 10.9298 6.875 10.6562ZM8.25 17.875H17.875C18.2397 17.875 18.5894 18.0199 18.8473 18.2777C19.1051 18.5356 19.25 18.8853 19.25 19.25V22C19.25 22.3647 19.1051 22.7144 18.8473 22.9723C18.5894 23.2301 18.2397 23.375 17.875 23.375H8.25C7.88533 23.375 7.53559 23.2301 7.27773 22.9723C7.01987 22.7144 6.875 22.3647 6.875 22V19.25C6.875 18.8853 7.01987 18.5356 7.27773 18.2777C7.53559 18.0199 7.88533 17.875 8.25 17.875ZM7.90625 13.0625H22.3438C22.6173 13.0625 22.8796 13.1711 23.073 13.3645C23.2664 13.5579 23.375 13.8202 23.375 14.0938C23.375 14.3673 23.2664 14.6296 23.073 14.823C22.8796 15.0163 22.6173 15.125 22.3438 15.125H7.90625C7.63275 15.125 7.37044 15.0163 7.17705 14.823C6.98365 14.6296 6.875 14.3673 6.875 14.0938C6.875 13.8202 6.98365 13.5579 7.17705 13.3645C7.37044 13.1711 7.63275 13.0625 7.90625 13.0625Z" fill="#ED2929"/>
</svg>
