<svg width="25" height="33" viewBox="0 0 25 33" fill="none" xmlns="http://www.w3.org/2000/svg">
<g clip-path="url(#clip0_33_77)">
<path d="M14.9531 29.7C14.9531 29.1328 14.7007 28.6473 14.1958 28.2434C13.6909 27.8395 13.084 27.6375 12.375 27.6375C11.666 27.6375 11.0591 27.8395 10.5542 28.2434C10.0493 28.6473 9.79688 29.1328 9.79688 29.7C9.79688 30.2672 10.0493 30.7527 10.5542 31.1566C11.0591 31.5605 11.666 31.7625 12.375 31.7625C13.084 31.7625 13.6909 31.5605 14.1958 31.1566C14.7007 30.7527 14.9531 30.2672 14.9531 29.7ZM21.6562 25.575V7.425C21.6562 7.20156 21.5542 7.0082 21.3501 6.84492C21.146 6.68164 20.9043 6.6 20.625 6.6H4.125C3.8457 6.6 3.604 6.68164 3.3999 6.84492C3.1958 7.0082 3.09375 7.20156 3.09375 7.425V25.575C3.09375 25.7984 3.1958 25.9918 3.3999 26.1551C3.604 26.3184 3.8457 26.4 4.125 26.4H20.625C20.9043 26.4 21.146 26.3184 21.3501 26.1551C21.5542 25.9918 21.6562 25.7984 21.6562 25.575ZM15.4688 3.7125C15.4688 3.4375 15.2969 3.3 14.9531 3.3H9.79688C9.45312 3.3 9.28125 3.4375 9.28125 3.7125C9.28125 3.9875 9.45312 4.125 9.79688 4.125H14.9531C15.2969 4.125 15.4688 3.9875 15.4688 3.7125ZM24.75 3.3V29.7C24.75 30.5938 24.3418 31.3672 23.5254 32.0203C22.709 32.6734 21.7422 33 20.625 33H4.125C3.00781 33 2.04102 32.6734 1.22461 32.0203C0.408203 31.3672 0 30.5938 0 29.7V3.3C0 2.40625 0.408203 1.63281 1.22461 0.979688C2.04102 0.326562 3.00781 0 4.125 0H20.625C21.7422 0 22.709 0.326562 23.5254 0.979688C24.3418 1.63281 24.75 2.40625 24.75 3.3Z" fill="#ED2929"/>
</g>
<defs>
<clipPath id="clip0_33_77">
<rect width="24.75" height="33" fill="white"/>
</clipPath>
</defs>
</svg>
