<svg width="25" height="28" viewBox="0 0 25 28" fill="none" xmlns="http://www.w3.org/2000/svg">
<path d="M22.125 0.5C22.8543 0.5 23.5538 0.789731 24.0695 1.30546C24.5853 1.82118 24.875 2.52065 24.875 3.25V19.75C24.875 20.4793 24.5853 21.1788 24.0695 21.6945C23.5538 22.2103 22.8543 22.5 22.125 22.5H2.875C2.14565 22.5 1.44618 22.2103 0.930456 21.6945C0.414731 21.1788 0.125 20.4793 0.125 19.75V3.25C0.125 2.52065 0.414731 1.82118 0.930456 1.30546C1.44618 0.789731 2.14565 0.5 2.875 0.5H22.125ZM22.125 8.75H2.875V18.375C2.87504 18.7118 2.99869 19.0368 3.22248 19.2885C3.44628 19.5402 3.75465 19.701 4.08912 19.7404L4.25 19.75H20.75C21.0868 19.75 21.4118 19.6263 21.6635 19.4025C21.9152 19.1787 22.076 18.8703 22.1154 18.5359L22.125 18.375V8.75ZM4.25 3.25C3.88533 3.25 3.53559 3.39487 3.27773 3.65273C3.01987 3.91059 2.875 4.26033 2.875 4.625C2.875 4.98967 3.01987 5.33941 3.27773 5.59727C3.53559 5.85513 3.88533 6 4.25 6C4.61467 6 4.96441 5.85513 5.22227 5.59727C5.48013 5.33941 5.625 4.98967 5.625 4.625C5.625 4.26033 5.48013 3.91059 5.22227 3.65273C4.96441 3.39487 4.61467 3.25 4.25 3.25ZM8.375 3.25C8.01033 3.25 7.66059 3.39487 7.40273 3.65273C7.14487 3.91059 7 4.26033 7 4.625C7 4.98967 7.14487 5.33941 7.40273 5.59727C7.66059 5.85513 8.01033 6 8.375 6C8.73967 6 9.08941 5.85513 9.34727 5.59727C9.60513 5.33941 9.75 4.98967 9.75 4.625C9.75 4.26033 9.60513 3.91059 9.34727 3.65273C9.08941 3.39487 8.73967 3.25 8.375 3.25ZM12.5 3.25C12.1353 3.25 11.7856 3.39487 11.5277 3.65273C11.2699 3.91059 11.125 4.26033 11.125 4.625C11.125 4.98967 11.2699 5.33941 11.5277 5.59727C11.7856 5.85513 12.1353 6 12.5 6C12.8647 6 13.2144 5.85513 13.4723 5.59727C13.7301 5.33941 13.875 4.98967 13.875 4.625C13.875 4.26033 13.7301 3.91059 13.4723 3.65273C13.2144 3.39487 12.8647 3.25 12.5 3.25Z" fill="#ED2929"/>
</svg>
