<svg width="83" height="81" viewBox="0 0 83 81" fill="none" xmlns="http://www.w3.org/2000/svg">
<path d="M57.8814 51.7657L55.7959 53.8986C55.7959 53.8986 50.8322 58.9648 37.2884 45.1317C23.7447 31.2986 28.7084 26.2324 28.7084 26.2324L30.0193 24.8859C33.2597 21.5806 33.5668 16.2696 30.7389 12.3899L24.9639 4.46582C21.4622 -0.336682 14.7018 -0.972306 10.6914 3.12394L3.49553 10.4689C1.51094 12.5029 0.181775 15.1302 0.342192 18.0494C0.754692 25.5215 4.04552 41.591 22.3972 60.3396C41.8626 80.2182 60.1272 81.0092 67.5934 80.2935C69.9584 80.0675 72.0118 78.8339 73.6664 77.1389L80.1747 70.4908C84.5747 66.0037 83.3372 58.3056 77.7089 55.1652L68.9547 50.2732C65.2605 48.2157 60.7689 48.8183 57.8814 51.7657Z" fill="#ED2929"/>
</svg>
